<svg xmlns="http://www.w3.org/2000/svg" viewBox="0 0 32 32" fill="none">
  <!-- Trophy: geometric flat, 1 color, readable at 16px -->
  <!-- Cup body -->
  <path d="M10 4 L22 4 L20 17 Q20 20 16 20 Q12 20 12 17 Z" fill="#005BBB"/>
  <!-- Left handle arc -->
  <path d="M10 6 Q5 6 5 11 Q5 15 10 15 L10 13 Q7 13 7 11 Q7 8 10 8 Z" fill="#005BBB"/>
  <!-- Right handle arc -->
  <path d="M22 6 Q27 6 27 11 Q27 15 22 15 L22 13 Q25 13 25 11 Q25 8 22 8 Z" fill="#005BBB"/>
  <!-- Stem -->
  <rect x="14" y="20" width="4" height="4" rx="0.5" fill="#005BBB"/>
  <!-- Base -->
  <rect x="10" y="24" width="12" height="3" rx="1" fill="#005BBB"/>
</svg>
